<?xml version="1.0" encoding="UTF-8" standalone="no"?>
<!DOCTYPE svg PUBLIC "-//W3C//DTD SVG 1.1//EN" "http://www.w3.org/Graphics/SVG/1.1/DTD/svg11.dtd">
<svg xmlns="http://www.w3.org/2000/svg" xmlns:xlink="http://www.w3.org/1999/xlink" version="1.1" width="900pt" height="340pt" viewBox="100 430 950 340">
<g enable-background="new">
<path d="M 0 0 L 1200 0 L 1200 1200 L 0 1200 Z " fill-opacity="0"/>
<path transform="matrix(1200,0,0,1200,0,0)" d="M 0 0 L 1 0 L 1 1 L 0 1 Z " fill-opacity="0"/>
<symbol id="font_0_1">
<path d="M .32650004 .25550003 C .32650004 .21550001 .32150004 .17966669 .3115 .148 C .30183337 .116333339 .28733335 .0895 .268 .0675 C .24900002 .045833336 .22550003 .029166669 .19750002 .017500002 C .16950001 .005833334 .13733335 0 .101 0 C .067999999 0 .034333335 .004666667 0 .014 C .0006666668 .023666667 .0015000003 .03316667 .0025000005 .042500006 C .0035000006 .05216667 .004333334 .061666669 .005000001 .071 C .0056666678 .076666679 .007666668 .08116668 .011000002 .08450001 C .014666669 .08816668 .020166668 .09 .027500002 .09 C .0335 .09 .041333334 .0885 .051 .0855 C .061 .0825 .07433333 .08100001 .091000009 .08100001 C .113000009 .08100001 .13266666 .08433334 .15 .091000009 C .16733335 .09766667 .18183334 .108 .19350001 .12200001 C .20516669 .136 .214 .15383335 .22000002 .1755 C .22633334 .1975 .22950001 .22350002 .22950001 .2535 L .22950001 .72450008 L .32650004 .72450008 L .32650004 .25550003 Z "/>
</symbol>
<symbol id="font_0_2">
<path d="M .10800001 .5065 L .10800001 0 L .019000002 0 L .019000002 .5065 L .10800001 .5065 M .127 .66550007 C .127 .65683338 .12516667 .6486667 .1215 .64100006 C .11816666 .6336667 .1135 .62700006 .1075 .62100008 C .10183334 .6153334 .095000009 .61083337 .087 .6075 C .07933333 .6041667 .071166668 .6025 .0625 .6025 C .053833337 .6025 .04566667 .6041667 .038000004 .6075 C .03066667 .61083337 .024166668 .6153334 .0185 .62100008 C .012833332 .62700006 .008333332 .6336667 .004999999 .64100006 C .0016666664 .6486667 0 .65683338 0 .66550007 C 0 .6741667 .0016666664 .6823334 .004999999 .69000008 C .008333332 .698 .012833332 .7048333 .0185 .71050009 C .024166668 .71650007 .03066667 .7211667 .038000004 .72450008 C .04566667 .72783347 .053833337 .72950008 .0625 .72950008 C .071166668 .72950008 .07933333 .72783347 .087 .72450008 C .095000009 .7211667 .10183334 .71650007 .1075 .71050009 C .1135 .7048333 .11816666 .698 .1215 .69000008 C .12516667 .6823334 .127 .6741667 .127 .66550007 Z "/>
</symbol>
<symbol id="font_0_3">
<path d="M .08400001 .43300004 C .095000009 .44533337 .10666666 .45650003 .119 .4665 C .13133334 .47650004 .14433335 .485 .158 .492 C .172 .49933336 .18666667 .5048334 .202 .50850006 C .21766667 .51250007 .2345 .5145 .2525 .5145 C .2801667 .5145 .3045 .50983336 .3255 .5005 C .34683336 .49150003 .36450006 .4785 .37850005 .46150003 C .39283339 .44483338 .4036667 .42466668 .411 .40100003 C .41833339 .3773333 .42200006 .3511667 .42200006 .32250003 L .42200006 0 L .33250005 0 L .33250005 .32250003 C .33250005 .36083339 .3236667 .39050005 .306 .4115 C .2886667 .43283335 .2621667 .4435 .22650002 .4435 C .20016669 .4435 .17550002 .4371667 .1525 .42450003 C .12983334 .41183339 .10883334 .39466668 .08950001 .37300004 L .08950001 0 L 0 0 L 0 .5065 L .053500005 .5065 C .06616667 .5065 .07400001 .50033339 .07700001 .48800005 L .08400001 .43300004 Z "/>
</symbol>
<use xlink:href="#font_0_1" transform="matrix(232.78844,-.22464085,-.22464085,-232.78844,615.763,687.2283)" fill="#403f32"/>
<use xlink:href="#font_0_2" transform="matrix(232.78844,-.22464085,-.22464085,-232.78844,722.611,685.2628)" fill="#403f32"/>
<use xlink:href="#font_0_3" transform="matrix(232.78844,-.22464085,-.22464085,-232.78844,781.7393,685.2058)" fill="#403f32"/>
<use xlink:href="#font_0_3" transform="matrix(232.78844,-.22464085,-.22464085,-232.78844,911.63528,685.08047)" fill="#403f32"/>
<path transform="matrix(3.772757,0,0,3.772757,175,480.14988)" d="M 26 59 C 25.447 59 25 58.553 25 58 C 25 57.447 25.447 57 26 57 C 33.717 57 38.432 54.255 43.423 51.348 C 47.673 48.873 52.059 46.319 58.519 45.214 L 56.703 44.003 C 54.609 44.046 51.978 44.518 49.431 44.976 C 44.431 45.874 39.709 46.722 37.677 44.711 C 37.285 44.322 37.281 43.689 37.67 43.296 C 38.06 42.904 38.691 42.901 39.085 43.289 C 40.377 44.57 44.999 43.74 49.077 43.007 C 51.833 42.512 54.684 42 57 42 C 57.197 42 57.391 42.059 57.555 42.168 L 60.555 44.168 C 60.833 44.354 61 44.666 61 45 L 61 46 C 61 46.501 60.629 46.925 60.132 46.991 C 53.318 47.899 48.799 50.531 44.429 53.076 C 39.198 56.122 34.257 59 26 59 Z " fill="#dbd613"/>
<path transform="matrix(3.772757,0,0,3.772757,175,480.14988)" d="M 37.415 44 L 37.415 44 L 14.099 43.998 C 13.546 43.998 13.099 43.55 13.099 42.998 C 13.099 42.445 13.547 41.998 14.099 41.998 L 37.415 42 C 37.968 42 38.415 42.448 38.415 43 C 38.415 43.553 37.967 44 37.415 44 Z " fill="#dbd613"/>
<path transform="matrix(3.772757,0,0,3.772757,175,480.14988)" d="M 26 37 C 24.346 37 23 35.654 23 34 C 23 32.346 24.346 31 26 31 C 27.654 31 29 32.346 29 34 C 29 35.654 27.654 37 26 37 Z M 26 33 C 25.448 33 25 33.448 25 34 C 25 34.552 25.448 35 26 35 C 26.552 35 27 34.552 27 34 C 27 33.448 26.552 33 26 33 Z " fill="#dbd613"/>
<path transform="matrix(3.772757,0,0,3.772757,175,480.14988)" d="M 26 59 C 18.01 59 11 53.859 11 48 C 11 42.141 18.01 37 26 37 C 26.553 37 27 37.447 27 38 C 27 38.553 26.553 39 26 39 C 18.56 39 13 43.752 13 48 C 13 52.248 18.56 57 26 57 C 26.553 57 27 57.447 27 58 C 27 58.553 26.553 59 26 59 Z " fill="#dbd613"/>
<path transform="matrix(3.772757,0,0,3.772757,175,480.14988)" d="M 38.382 45.002 C 38.079 45.002 37.779 44.865 37.583 44.605 C 35.475 41.815 31.076 39 26 39 C 25.447 39 25 38.553 25 38 C 25 37.447 25.447 37 26 37 C 32.158 37 36.948 40.447 39.179 43.399 C 39.512 43.839 39.425 44.466 38.984 44.799 C 38.804 44.937 38.592 45.002 38.382 45.002 Z " fill="#dbd613"/>
<path transform="matrix(3.772757,0,0,3.772757,175,480.14988)" d="M 26 39 C 25.447 39 25 38.553 25 38 L 25 36 C 25 35.447 25.447 35 26 35 C 26.553 35 27 35.447 27 36 L 27 38 C 27 38.553 26.553 39 26 39 Z " fill="#dbd613"/>
<path transform="matrix(3.772757,0,0,3.772757,175,480.14988)" d="M 35.001 64 C 34.694 64 34.393 63.859 34.196 63.595 L 30.196 58.188 C 29.867 57.744 29.961 57.118 30.405 56.79 C 30.849 56.46 31.475 56.558 31.803 56.999 L 35.803 62.406 C 36.132 62.85 36.038 63.476 35.594 63.804 C 35.416 63.937 35.207 64 35.001 64 Z " fill="#dbd613"/>
<path transform="matrix(3.772757,0,0,3.772757,175,480.14988)" d="M 17.999 64 C 17.794 64 17.587 63.937 17.409 63.807 C 16.963 63.48 16.867 62.855 17.193 62.41 L 21.193 56.954 C 21.52 56.508 22.146 56.411 22.59 56.738 C 23.036 57.065 23.132 57.69 22.806 58.135 L 18.806 63.591 C 18.61 63.858 18.307 64 17.999 64 Z " fill="#dbd613"/>
<path transform="matrix(3.772757,0,0,3.772757,175,480.14988)" d="M 35 64 L 18 64 C 17.447 64 17 63.553 17 63 C 17 62.447 17.447 62 18 62 L 35 62 C 35.553 62 36 62.447 36 63 C 36 63.553 35.553 64 35 64 Z " fill="#dbd613"/>
<path transform="matrix(3.772757,0,0,3.772757,175,480.14988)" d="M 14.067 54 L 7.5 54 C 3.364 54 0 50.636 0 46.5 C 0 42.364 3.364 39 7.5 39 C 9.818 39 11.251 40.163 12.298 41.012 C 13.05 41.622 13.54 41.998 14.061 41.998 C 14.075 41.998 14.087 41.997 14.099 41.998 C 14.643 41.998 15.089 42.434 15.099 42.979 C 15.109 43.532 14.669 43.988 14.118 43.998 C 12.816 43.992 11.921 43.28 11.038 42.564 C 10.046 41.76 9.109 41 7.5 41 C 4.468 41 2 43.468 2 46.5 C 2 49.532 4.468 52 7.5 52 L 14.067 52 C 14.62 52 15.067 52.447 15.067 53 C 15.067 53.553 14.62 54 14.067 54 Z " fill="#dbd613"/>
<path transform="matrix(3.772757,0,0,3.772757,175,480.14988)" d="M 12.328 51 L 7.5 51 C 5.019 51 3 48.981 3 46.5 C 3 44.019 5.019 42 7.5 42 C 8.761 42 9.49 42.585 10.413 43.326 C 11.064 43.849 11.802 44.442 12.745 44.752 C 13.269 44.925 13.555 45.49 13.383 46.015 C 13.21 46.539 12.644 46.825 12.12 46.653 C 10.832 46.229 9.866 45.453 9.161 44.886 C 8.267 44.168 8.006 44 7.5 44 C 6.121 44 5 45.121 5 46.5 C 5 47.879 6.121 49 7.5 49 L 12.328 49 C 12.881 49 13.328 49.447 13.328 50 C 13.328 50.553 12.881 51 12.328 51 Z " fill="#dbd613"/>
<path transform="matrix(3.772757,0,0,3.772757,175,480.14988)" d="M 61 43 C 60.447 43 60 42.553 60 42 C 60 41.447 60.447 41 61 41 C 61.552 41 62 40.552 62 40 C 62 39.447 62.447 39 63 39 C 63.553 39 64 39.447 64 40 C 64 41.654 62.654 43 61 43 Z " fill="#dbd613"/>
<path transform="matrix(3.772757,0,0,3.772757,175,480.14988)" d="M 63 41 C 62.447 41 62 40.553 62 40 C 62 38.897 61.103 38 60 38 C 59.447 38 59 37.553 59 37 C 59 36.447 59.447 36 60 36 C 62.206 36 64 37.794 64 40 C 64 40.553 63.553 41 63 41 Z " fill="#dbd613"/>
<path transform="matrix(3.772757,0,0,3.772757,175,480.14988)" d="M 60 38 C 49.523 38 41 29.477 41 19 C 41 18.447 41.447 18 42 18 C 42.553 18 43 18.447 43 19 C 43 28.374 50.626 36 60 36 C 60.553 36 61 36.447 61 37 C 61 37.553 60.553 38 60 38 Z " fill="#dbd613"/>
<path transform="matrix(3.772757,0,0,3.772757,175,480.14988)" d="M 60 38 C 39.598 38 23 21.402 23 1 C 23 .447 23.447 0 24 0 C 24.553 0 25 .447 25 1 C 25 20.299 40.701 36 60 36 C 60.553 36 61 36.447 61 37 C 61 37.553 60.553 38 60 38 Z " fill="#dbd613"/>
<path transform="matrix(3.772757,0,0,3.772757,175,480.14988)" d="M 42 20 C 41.447 20 41 19.553 41 19 C 41 11.832 46.832 6 54 6 C 54.553 6 55 6.447 55 7 C 55 7.553 54.553 8 54 8 C 47.935 8 43 12.935 43 19 C 43 19.553 42.553 20 42 20 Z " fill="#dbd613"/>
<path transform="matrix(3.772757,0,0,3.772757,175,480.14988)" d="M 30.03 20 C 29.477 20 29.025 19.553 29.025 19 C 29.025 18.447 29.467 18 30.019 18 L 30.03 18 C 30.582 18 31.03 18.447 31.03 19 C 31.03 19.553 30.582 20 30.03 20 Z " fill="#dbd613"/>
<path transform="matrix(3.772757,0,0,3.772757,175,480.14988)" d="M 34.03 24 C 33.477 24 33.025 23.553 33.025 23 C 33.025 22.447 33.467 22 34.019 22 L 34.03 22 C 34.582 22 35.03 22.447 35.03 23 C 35.03 23.553 34.582 24 34.03 24 Z " fill="#dbd613"/>
<path transform="matrix(3.772757,0,0,3.772757,175,480.14988)" d="M 38.03 28 C 37.477 28 37.025 27.553 37.025 27 C 37.025 26.447 37.467 26 38.019 26 L 38.03 26 C 38.582 26 39.03 26.447 39.03 27 C 39.03 27.553 38.582 28 38.03 28 Z " fill="#dbd613"/>
<path transform="matrix(3.772757,0,0,3.772757,175,480.14988)" d="M 42.03 32 C 41.477 32 41.025 31.553 41.025 31 C 41.025 30.447 41.467 30 42.019 30 L 42.03 30 C 42.582 30 43.03 30.447 43.03 31 C 43.03 31.553 42.582 32 42.03 32 Z " fill="#dbd613"/>
<path transform="matrix(3.772757,0,0,3.772757,175,480.14988)" d="M 26.03 8 C 25.477 8 25.025 7.553 25.025 7 C 25.025 6.447 25.467 6 26.019 6 L 26.03 6 C 26.582 6 27.03 6.447 27.03 7 C 27.03 7.553 26.582 8 26.03 8 Z " fill="#dbd613"/>
<path transform="matrix(3.772757,0,0,3.772757,175,480.14988)" d="M 30.03 12 C 29.477 12 29.025 11.553 29.025 11 C 29.025 10.447 29.467 10 30.019 10 L 30.03 10 C 30.582 10 31.03 10.447 31.03 11 C 31.03 11.553 30.582 12 30.03 12 Z " fill="#dbd613"/>
<path transform="matrix(3.772757,0,0,3.772757,175,480.14988)" d="M 34.03 16 C 33.477 16 33.025 15.553 33.025 15 C 33.025 14.447 33.467 14 34.019 14 L 34.03 14 C 34.582 14 35.03 14.447 35.03 15 C 35.03 15.553 34.582 16 34.03 16 Z " fill="#dbd613"/>
<path transform="matrix(3.772757,0,0,3.772757,175,480.14988)" d="M 38.03 20 C 37.477 20 37.025 19.553 37.025 19 C 37.025 18.447 37.467 18 38.019 18 L 38.03 18 C 38.582 18 39.03 18.447 39.03 19 C 39.03 19.553 38.582 20 38.03 20 Z " fill="#dbd613"/>
<path transform="matrix(3.772757,0,0,3.772757,175,480.14988)" d="M 42.03 24 C 41.477 24 41.025 23.553 41.025 23 C 41.025 22.447 41.467 22 42.019 22 L 42.03 22 C 42.582 22 43.03 22.447 43.03 23 C 43.03 23.553 42.582 24 42.03 24 Z " fill="#dbd613"/>
<path transform="matrix(3.772757,0,0,3.772757,175,480.14988)" d="M 30.03 4 C 29.477 4 29.025 3.553 29.025 3 C 29.025 2.447 29.467 2 30.019 2 L 30.03 2 C 30.582 2 31.03 2.447 31.03 3 C 31.03 3.553 30.582 4 30.03 4 Z " fill="#dbd613"/>
<path transform="matrix(3.772757,0,0,3.772757,175,480.14988)" d="M 34.03 8 C 33.477 8 33.025 7.553 33.025 7 C 33.025 6.447 33.467 6 34.019 6 L 34.03 6 C 34.582 6 35.03 6.447 35.03 7 C 35.03 7.553 34.582 8 34.03 8 Z " fill="#dbd613"/>
<path transform="matrix(3.772757,0,0,3.772757,175,480.14988)" d="M 38.03 12 C 37.477 12 37.025 11.553 37.025 11 C 37.025 10.447 37.467 10 38.019 10 L 38.03 10 C 38.582 10 39.03 10.447 39.03 11 C 39.03 11.553 38.582 12 38.03 12 Z " fill="#dbd613"/>
<path transform="matrix(3.772757,0,0,3.772757,175,480.14988)" d="M 42.03 16 C 41.477 16 41.025 15.553 41.025 15 C 41.025 14.447 41.467 14 42.019 14 L 42.03 14 C 42.582 14 43.03 14.447 43.03 15 C 43.03 15.553 42.582 16 42.03 16 Z " fill="#dbd613"/>
<path transform="matrix(3.772757,0,0,3.772757,175,480.14988)" d="M 42.03 8 C 41.477 8 41.025 7.553 41.025 7 C 41.025 6.447 41.467 6 42.019 6 L 42.03 6 C 42.582 6 43.03 6.447 43.03 7 C 43.03 7.553 42.582 8 42.03 8 Z " fill="#dbd613"/>
<path transform="matrix(0,-3.8299204,3.8299204,0,326.88398,783.8362)" d="M 8 47.421 L 88 47.421 L 88 48.579 L 8 48.579 Z " fill="#403f32"/>
</g>
</svg>
